<svg width="72" height="22" viewBox="0 0 72 22" fill="none" xmlns="http://www.w3.org/2000/svg">
<circle cx="64.5" cy="10.5" r="7.5" fill="#11672C"/>
<circle cx="7.5" cy="10.5" r="7.5" fill="#11672C"/>
<path d="M19.918 16.146C19.606 15.762 19.45 15.42 19.45 15.12C19.45 14.808 19.708 14.4 20.224 13.896C20.524 13.608 20.842 13.464 21.178 13.464C21.514 13.464 21.982 13.764 22.582 14.364C22.75 14.568 22.99 14.766 23.302 14.958C23.614 15.138 23.902 15.228 24.166 15.228C25.282 15.228 25.84 14.772 25.84 13.86C25.84 13.584 25.684 13.356 25.372 13.176C25.072 12.984 24.694 12.846 24.238 12.762C23.782 12.678 23.29 12.546 22.762 12.366C22.234 12.174 21.742 11.952 21.286 11.7C20.83 11.448 20.446 11.052 20.134 10.512C19.834 9.96 19.684 9.3 19.684 8.532C19.684 7.476 20.074 6.558 20.854 5.778C21.646 4.986 22.72 4.59 24.076 4.59C24.796 4.59 25.45 4.686 26.038 4.878C26.638 5.058 27.052 5.244 27.28 5.436L27.73 5.778C28.102 6.126 28.288 6.42 28.288 6.66C28.288 6.9 28.144 7.23 27.856 7.65C27.448 8.25 27.028 8.55 26.596 8.55C26.344 8.55 26.032 8.43 25.66 8.19C25.624 8.166 25.552 8.106 25.444 8.01C25.348 7.914 25.258 7.836 25.174 7.776C24.922 7.62 24.598 7.542 24.202 7.542C23.818 7.542 23.494 7.638 23.23 7.83C22.978 8.01 22.852 8.268 22.852 8.604C22.852 8.928 23.002 9.192 23.302 9.396C23.614 9.6 23.998 9.738 24.454 9.81C24.91 9.882 25.408 9.996 25.948 10.152C26.488 10.296 26.986 10.476 27.442 10.692C27.898 10.908 28.276 11.286 28.576 11.826C28.888 12.354 29.044 13.008 29.044 13.788C29.044 14.568 28.888 15.258 28.576 15.858C28.264 16.446 27.856 16.902 27.352 17.226C26.38 17.862 25.342 18.18 24.238 18.18C23.674 18.18 23.14 18.114 22.636 17.982C22.132 17.838 21.724 17.664 21.412 17.46C20.776 17.076 20.332 16.704 20.08 16.344L19.918 16.146ZM38.9441 4.806C39.2201 4.806 39.4241 4.818 39.5561 4.842C39.7001 4.854 39.8561 4.908 40.0241 5.004C40.2041 5.1 40.3301 5.262 40.4021 5.49C40.4741 5.718 40.5101 6.024 40.5101 6.408C40.5101 6.792 40.4741 7.098 40.4021 7.326C40.3301 7.554 40.2041 7.716 40.0241 7.812C39.8441 7.896 39.6821 7.95 39.5381 7.974C39.4061 7.986 39.1961 7.992 38.9081 7.992H33.4001V9.81H36.9461C37.2341 9.81 37.4441 9.822 37.5761 9.846C37.7201 9.858 37.8821 9.912 38.0621 10.008C38.3741 10.188 38.5301 10.662 38.5301 11.43C38.5301 12.27 38.3021 12.768 37.8461 12.924C37.6541 12.984 37.3481 13.014 36.9281 13.014H33.4001V16.416C33.4001 16.704 33.3881 16.914 33.3641 17.046C33.3521 17.178 33.2981 17.334 33.2021 17.514C33.0341 17.838 32.5661 18 31.7981 18C30.9581 18 30.4661 17.772 30.3221 17.316C30.2501 17.124 30.2141 16.818 30.2141 16.398V6.39C30.2141 5.778 30.3281 5.364 30.5561 5.148C30.7841 4.92 31.2161 4.806 31.8521 4.806H38.9441ZM51.7731 15.768C51.9531 16.2 52.0431 16.512 52.0431 16.704C52.0431 17.16 51.6711 17.544 50.9271 17.856C50.5431 18.024 50.2311 18.108 49.9911 18.108C49.7631 18.108 49.5711 18.054 49.4151 17.946C49.2711 17.826 49.1631 17.706 49.0911 17.586C48.9711 17.358 48.5031 16.272 47.6871 14.328L47.1291 14.364H44.8611V16.398C44.8611 16.674 44.8491 16.884 44.8251 17.028C44.8131 17.16 44.7591 17.316 44.6631 17.496C44.4951 17.82 44.0271 17.982 43.2591 17.982C42.4191 17.982 41.9271 17.76 41.7831 17.316C41.7111 17.112 41.6751 16.8 41.6751 16.38V6.39C41.6751 6.114 41.6811 5.91 41.6931 5.778C41.7171 5.634 41.7771 5.472 41.8731 5.292C42.0411 4.968 42.5091 4.806 43.2771 4.806H47.1651C48.2211 4.806 49.2471 5.19 50.2431 5.958C50.7231 6.33 51.1191 6.834 51.4311 7.47C51.7431 8.106 51.8991 8.814 51.8991 9.594C51.8991 10.95 51.4491 12.066 50.5491 12.942C50.8131 13.578 51.2211 14.52 51.7731 15.768ZM44.8611 11.178H47.1651C47.5131 11.178 47.8611 11.046 48.2091 10.782C48.5571 10.518 48.7311 10.122 48.7311 9.594C48.7311 9.066 48.5571 8.67 48.2091 8.406C47.8611 8.13 47.5011 7.992 47.1291 7.992H44.8611V11.178Z" fill="#232323"/>
</svg>
